<?xml version="1.0" encoding="UTF-8"?>
<svg width="40px" height="43px" viewBox="0 0 40 43" version="1.1" xmlns="http://www.w3.org/2000/svg" xmlns:xlink="http://www.w3.org/1999/xlink">
    <!-- Generator: Sketch 54.1 (76490) - https://sketchapp.com -->
    <title>Combined Shape</title>
    <desc>Created with Sketch.</desc>
    <g id="Page-1" stroke="none" stroke-width="1" fill="none" fill-rule="evenodd">
        <g id="r" transform="translate(-36.000000, -87.000000)" fill="#2F2F2F" fill-rule="nonzero">
            <path d="M52.9,128.7 C52.3,127.9 50.6,127.5 49,127.8 C46.8,128.1 46,127.7 45.1,125.7 C44.4,124.3 42.9,123 41.6,122.8 C39.9,122.6 39.2,121.7 39,119.5 C38.8,117.9 38,116.2 37.3,115.8 C35.6,114.8 35.6,102.2 37.3,101.2 C38,100.8 38.8,99.2 39,97.5 C39.2,95.3 39.9,94.4 41.6,94.2 C43,94 44.3,92.8 44.9,91.3 C45.7,89.2 46.3,88.9 48.8,89.2 C50.6,89.5 52.3,89.1 52.9,88.3 C54.4,86.6 57.2,86.6 58.7,88.3 C59.3,89.1 61,89.5 62.6,89.2 C64.8,88.9 65.6,89.3 66.5,91.3 C67.2,92.7 68.7,94 70,94.2 C71.7,94.4 72.4,95.3 72.6,97.5 C72.8,99.2 73.6,100.8 74.3,101.2 C76,102.2 76,114.8 74.3,115.8 C73.6,116.2 72.8,117.9 72.6,119.5 C72.4,121.7 71.7,122.6 70,122.8 C68.6,123 67.3,124.2 66.7,125.7 C65.9,127.8 65.3,128.1 62.8,127.8 C61,127.5 59.3,127.9 58.7,128.7 C58.1,129.4 56.8,130 55.8,130 C54.8,130 53.5,129.4 52.9,128.7 Z M56,114.5 L62.4656378,117.899187 L61.2308108,110.699593 L66.4616217,105.600813 L59.2328189,104.550407 L56,98 L52.7671811,104.550407 L45.5383783,105.600813 L50.7691892,110.699593 L49.5343622,117.899187 L56,114.5 Z" id="Combined-Shape"></path>
        </g>
    </g>
</svg>