<?xml version="1.0" encoding="utf-8"?>
<!-- Generator: Adobe Illustrator 22.1.0, SVG Export Plug-In . SVG Version: 6.00 Build 0)  -->
<svg version="1.1" id="MAIN" xmlns="http://www.w3.org/2000/svg" xmlns:xlink="http://www.w3.org/1999/xlink" x="0px" y="0px"
	 viewBox="0 0 32 32" style="enable-background:new 0 0 32 32;" xml:space="preserve">
<style type="text/css">
	.st0{fill:#CB2026;}
</style>
<path class="st0" d="M30.04,0.043c-0.36,0.06-0.74,0.158-1.036,0.323c-3.37,1.875-6.825,3.676-9.18,6.466
	c-0.279,0.331-0.488,0.75-0.874,0.963c-1.5,0.827-2.582,1.829-2.732,3.349c-0.014,0.137-0.317,0.301-0.529,0.37
	c-0.377,0.124-0.801,0.039-0.973-0.239c-1.335-2.166-3.713-3.739-5.183-5.832c-0.546-0.778-1.265-1.483-1.956-2.19
	C6.619,2.272,5.415,1.6,3.786,1.546C3.011,1.669,2.352,1.514,1.792,1.125C1.699,1.081,1.612,1.023,1.534,0.943L1.531,0.942
	C1.02,1.351,0.51,1.759,0,2.168L0.001,2.17c0.375,0.13,0.58,0.358,0.613,0.683c0.711,1.05,1.566,2.056,2.105,3.16
	c1.113,2.282,2.767,4.224,5.084,5.823c1.548,1.068,1.271,3.003,2.975,4.025c0.161,0.097,0.099,0.612-0.066,0.836
	c-0.44,0.597-0.895,1.224-1.519,1.692c-1.707,1.282-2.539,2.924-3.268,4.628c-0.966,2.26-1.937,4.519-2.902,6.78
	c-0.12,0.282-0.255,0.566-0.318,0.857c-0.177,0.811,0.965,1.556,1.943,1.29c0.737-0.201,1.356-0.54,1.753-1.067
	c2.206-2.929,5.435-5.186,8.079-7.827c0.587-0.586,1.245-0.565,1.888,0.005c1.505,1.333,3.022,2.659,4.463,4.035
	c1.458,1.393,3.192,2.496,5.03,3.556c1.467,0.846,2.758,0.736,4.183,0.143c1.404-0.584,1.665-1.416,0.792-2.422
	c-3.412-3.93-6.819-7.863-10.228-11.794c-0.38-0.438-0.651-1.033-0.164-1.369c1.316-0.909,1.462-2.293,2.379-3.345
	c2.92-3.349,5.254-7.017,8.679-10.092c0.423-0.38,0.739-0.873,0.261-1.342C31.341,0.015,30.682-0.064,30.04,0.043z"/>
</svg>
