<svg xmlns="http://www.w3.org/2000/svg" viewBox="0 0 32 32"><path d="M30.04.043c-.36.06-.74.158-1.036.323-3.37 1.875-6.825 3.676-9.18 6.466-.279.331-.488.75-.874.963-1.5.827-2.582 1.829-2.732 3.349-.014.137-.317.301-.529.37-.377.124-.801.039-.973-.239-1.335-2.166-3.713-3.739-5.183-5.832-.546-.778-1.265-1.483-1.956-2.19-.958-.981-2.162-1.653-3.791-1.707-.775.123-1.434-.032-1.994-.421a.88.88 0 0 1-.258-.182L1.531.942 0 2.168l.001.002c.375.13.58.358.613.683.711 1.05 1.566 2.056 2.105 3.16 1.113 2.282 2.767 4.224 5.084 5.823 1.548 1.068 1.271 3.003 2.975 4.025.161.097.099.612-.066.836-.44.597-.895 1.224-1.519 1.692-1.707 1.282-2.539 2.924-3.268 4.628-.966 2.26-1.937 4.519-2.902 6.78-.12.282-.255.566-.318.857-.177.811.965 1.556 1.943 1.29.737-.201 1.356-.54 1.753-1.067 2.206-2.929 5.435-5.186 8.079-7.827.587-.586 1.245-.565 1.888.005 1.505 1.333 3.022 2.659 4.463 4.035 1.458 1.393 3.192 2.496 5.03 3.556 1.467.846 2.758.736 4.183.143 1.404-.584 1.665-1.416.792-2.422-3.412-3.93-6.819-7.863-10.228-11.794-.38-.438-.651-1.033-.164-1.369 1.316-.909 1.462-2.293 2.379-3.345 2.92-3.349 5.254-7.017 8.679-10.092.423-.38.739-.873.261-1.342-.422-.41-1.081-.489-1.723-.382z" fill="#cb2026"/></svg>