<?xml version="1.0" encoding="utf-8"?>
<!-- Generator: Adobe Illustrator 22.1.0, SVG Export Plug-In . SVG Version: 6.00 Build 0)  -->
<svg version="1.1" id="Layer_1" xmlns="http://www.w3.org/2000/svg" xmlns:xlink="http://www.w3.org/1999/xlink" x="0px" y="0px"
	 viewBox="0 0 59.8 61" style="enable-background:new 0 0 59.8 61;" xml:space="preserve">
<style type="text/css">
	.st0{fill:#FFFFFF;}
</style>
<g>
	<path class="st0" d="M27.8,0c1.4,0,2.7,0,4.1,0C32,0.1,32,0.2,32.1,0.2c1.2,0,2.5-0.2,3.6,0.5c0.1,0,0.2,0,0.2,0
		c0.5,0,0.9,0,1.3,0.2c0.5,0.3,1,0.2,1.3,0.2c0.3,0.2,0.5,0.4,0.5,0.5c0.3,1.1,0.6,2.1,0.9,2.9c0.7,1.2,1.7,2.1,2.8,2.9
		c1.1,0.8,2.4,1,3.6,1.1c1.3,0.1,2.6-0.2,3.7-0.9c2,1.6,3.2,3.8,4.9,5.7c0,0.1-0.1,0.2,0,0.3c0.6,0.7,0.8,1.6,1.3,2.3
		c0.8,1.1,1.3,2.4,1.8,3.7c0.5,1.1,0.7,2.3,1.2,3.3c0.2,0.4,0.3,0.7,0.2,1.1c-0.1,0.1-0.3,0.3-0.4,0.4c-1.2,0.6-1.8,1.7-2.4,2.7
		c-0.7,1.1-0.4,2.4-0.7,3.5c0,0,0,0.1,0,0.1c0.4,0.6,0.2,1.2,0.2,1.5c0.8,2,1.8,3.5,3.4,4.7c0,0.3,0,0.7,0,1.1
		c-0.1,0.1-0.2,0.2-0.2,0.3c-0.7,1.6-1.3,3.3-2.2,4.9c-0.9,1.5-1.5,3.1-2.6,4.5c-0.8,0.9-1.3,2.1-2.2,2.9c-0.1,0.1-0.2,0.2-0.2,0.3
		c-0.5,0.9-1.3,1.6-2.1,2c-0.3-0.1-0.5-0.2-0.7-0.2c-0.5-0.1-1-0.4-1.6-0.2c-0.8-0.5-1.7-0.3-2.5-0.1c-0.8,0.1-1.6,0.3-2.3,0.9
		c-0.5,0.4-1.1,0.6-1.5,1c-0.4,0.4-0.7,1-1,1.5c-0.7,1-1.1,2.2-1.5,3.4c-0.1,0.5-0.4,0.5-0.8,0.7c-1,0.5-2.1,0.4-3.1,0.6
		c-0.9,0.2-1.8,0.4-2.8,0.3c-0.1,0-0.2,0-0.3,0.1c-0.5,0.4-0.9,0.1-1.3-0.1c-0.2,0.1-0.3,0.4-0.6,0.2c-0.2-0.1-0.5,0-0.8,0.1
		c-0.6,0.1-1.2-0.3-1.8-0.3c-0.4,0-0.9-0.1-1.4-0.2c-0.1,0.1-0.2,0.1-0.2,0.2c-1.7-0.5-3.5-0.5-5.2-1.1c-0.1-0.2-0.3-0.6-0.4-0.9
		c-0.2-0.6-0.3-1.2-0.6-1.8c-0.8-1.9-2.4-3-4-4c-0.1,0-0.1-0.1-0.2-0.1c-0.9-0.2-1.8-0.3-2.7-0.5c-0.7-0.1-1.3,0.2-1.9,0.2
		c-0.7,0.1-1.4,0.4-2,0.7c-0.4-0.3-0.9-0.5-1.2-0.9c-0.7-1.1-1.6-2-2.3-3.1c-0.9-1.6-2-3.2-2.9-4.8c-0.2-0.4-0.4-0.8-0.5-1.2
		c-0.5-1.5-1-3-1.7-4.5c-0.3-0.5-0.5-1.1-0.4-1.7c0.6-0.6,1.2-1.2,1.7-1.7c0.6-0.6,1.2-1.4,1.3-2.2c0.1-0.8,0.4-1.6,0.3-2.4
		c-0.1-0.8-0.2-1.7-0.3-2.5c-0.7-1.7-1.8-3-3.1-4c0-0.4-0.1-0.8,0-1.1c0.4-1.2,0.6-2.5,1.1-3.6c0.4-0.8,0.5-1.6,1-2.3
		c0.4-0.6,0.7-1.2,1.1-1.9c0.5-0.9,1-1.8,1.7-2.7c0.4-0.5,1-0.9,1.3-1.5c0.2-0.5,0.7-0.8,1-1.3c0.2-0.4,0.5-0.7,0.9-1.1
		c0.4-0.4,0.8-0.7,1.3-1c1.2,0.6,2.5,0.6,3.9,0.6c0.3,0,0.6,0,1,0c0.3,0,0.5-0.1,0.8-0.2c1.4-0.3,2.4-1.2,3.3-2.1
		c1.3-1.3,2.1-2.8,2.1-4.6c1.2-0.2,2.2-0.9,3.4-0.8c0.4-0.4,0.9,0,1.3-0.3c0.5-0.3,1-0.2,1.5-0.2c0.3,0,0.6,0,1,0
		C27.7,0.2,27.8,0.1,27.8,0z M56.7,36.6c-0.2,0.2-0.3,0.2-0.3,0.2c0,0.1,0.1,0.2,0.1,0.3c0-0.1,0.1-0.3-0.4,0.6
		c0.2-0.2,0.3-0.2,0.3-0.2c0-0.1-0.1-0.2-0.1-0.3C56.3,37.3,56.2,37.5,56.7,36.6z M1.2,20.9c-0.2,0.3-0.2,0.3,0,0.7
		c0-0.3,0-0.5,0.3-1.3c-0.2,0.2-0.3,0.2-0.3,0.2c0,0.1,0.1,0.2,0.1,0.3C1.4,20.7,1.4,20.6,1.2,20.9z M44.6,51.5c0,0,0-0.1,0-0.1
		c-0.3,0-0.6,0-0.9,0c0,0,0,0.1,0,0.1c0.3,0,0.6,0,0.9-0.4c0,0.1,0,0.1,0,0.2c0.2,0,0.3-0.1,0.5-0.1c0-0.1,0-0.1,0-0.2
		C44.9,51.1,44.8,51.2,44.6,51.5z M51.8,28.5c0,0,0.1,0.1,0.1,0.1c0.3-0.1,0.7-0.3,1-0.4c0-0.2-0.1-0.2-0.1-0.4
		c-0.3,0.2-0.6,0.4-0.9,0.9C51.8,28.7,51.8,28.6,51.8,28.5c-0.1,0.1-0.3,0.1-0.4,0.2c0,0.1,0,0.1,0,0.2
		C51.5,28.8,51.7,28.8,51.8,28.5z M24,32.5c0.1,0.1,0.2,0.2,0.2,0.3c0.5,1.7,2.2,2.9,4.1,3.6c0.4,0.1,1-0.1,1.3,0.1
		c0.7,0.5,1.2-0.1,1.8-0.2c0.2,0,0.4-0.3,0.7-0.4c1.6-0.4,2.5-1.4,2.9-2.9c0.1-0.5,0.4-0.9,0.7-1.3c0-0.5,0-1,0-1.6
		c0-1.6-0.7-2.9-1.9-4c-0.4-0.4-1-0.8-1.2-0.9c-0.6-0.3-1-0.5-1.5-0.7c-0.6,0-1.4,0-2.1,0c-0.7,0-1.4,0.3-2,0.7
		c-0.6,0.4-1.2,0.9-1.7,1.4c-1.3,1.3-1.6,2.9-1.6,4.6C24.1,31.6,24,32.1,24,32.5z M46.6,48.9c0.6-0.1,1-0.1,1.4-0.1c1.1,0,2-0.4,3-1
		c0.9-0.5,1.6-1.4,2.3-2.1c1.2-1.2,1.8-2.7,1.8-4.4c0-0.7,0-1.4,0-2.2c0-0.3-0.1-0.5-0.1-0.8c-0.3-1.4-1.2-2.4-1.8-3.7
		c-0.2-0.3-0.6-0.6-1-0.8c-0.7-0.5-1.4-0.9-2.2-1.4c-1-0.2-2.1-0.6-3.3-0.5c-0.7,0-1.4,0.2-2.2,0.3c-0.7,0.1-1.5,0.4-2.2,0.8
		c-1,0.7-1.9,1.5-2.7,2.5c-0.5,0.6-0.8,1.5-1.1,2.3c-0.1,0.3-0.1,0.6-0.1,0.9c0,1.2,0,2.5,0,3.7c0.3,0.5,0.5,1.1,0.7,1.6
		c0.2,0.6,0.4,1.2,0.9,1.7c0.5,0.4,0.9,0.9,1.3,1.4c0.4,0.5,1,0.6,1.5,1c0.5,0.4,1.2,0.4,1.8,0.7C45.5,48.9,46.2,48.4,46.6,48.9z
		 M38.2,9.8c-0.1-0.4-0.1-0.7-0.2-1c-0.4-1.5-1.3-2.7-2.1-4c-0.2-0.3-0.4-0.6-0.7-0.7c-0.6-0.2-1-0.7-1.5-1
		c-0.5-0.3-1.1-0.4-1.6-0.7c-0.5-0.2-1.2-0.6-1.7-0.3c-0.3,0.2-0.5,0.2-0.8,0.2c-0.6,0-1.1-0.1-1.7,0c-0.5,0.1-1,0.4-1.5,0.6
		c-0.4,0.2-0.8,0.2-1.1,0.4c-0.6,0.3-2,1.9-2.4,2.6c-0.2,0.4-0.6,0.7-0.7,1.1c-0.3,0.9-0.5,1.8-0.9,2.7c-0.1,0.1-0.1,0.4,0,0.4
		c0.4,0.4,0.1,0.9,0.2,1.3c0.1,0.5,0.3,0.9,0.5,1.4c0.2,0.7,0.7,1.3,0.7,2.1c0,0.1,0.1,0.1,0.1,0.2c0.8,0.7,1.4,1.7,2.3,2.3
		c0.5,0.3,0.9,0.7,1.5,0.8c1,0.3,2.1,0.5,3.2,0.7c0.8,0.2,1.5-0.2,2.3-0.3c0.3,0,0.6-0.4,0.9-0.4c1.3-0.3,2.3-1,3.1-2
		c0.5-0.6,0.9-1.4,1.4-2.1c0.6-0.9,0.9-2,0.9-3.1c0-0.5,0.2-1,0.4-1.5C38.5,9.9,38.4,9.8,38.2,9.8z M8.5,28.1
		c0.8,0.2,1.6,0.6,2.4,0.7c1.2,0.1,2.5,0,3.7,0c0.2,0,0.3,0,0.5,0c1.2-0.5,2.5-1,3.5-2c0.7-0.7,1.3-1.5,1.9-2.4
		c0.3-0.4,0.4-0.8,0.5-1.2c0.3-0.7,0.2-1.3,0.4-2c0.3-1,0-2-0.3-2.9c-0.5-1.4-1.5-2.5-2.2-3.8c0-0.1,0.1-0.1,0.1-0.2
		c-0.1-0.1-0.2-0.3-0.3-0.4c-0.2,0.1-0.3,0.2-0.4,0.3c-0.6-0.4-1.1-0.8-1.5-1.2c-0.4-0.1-0.7-0.1-0.9-0.3c-1.1-0.7-2.4-0.4-3.6-0.7
		c-0.3-0.1-0.6,0-0.9,0.1c-0.3,0.1-0.5,0.2-0.9,0.2c-0.7,0-1.3,0.3-1.9,0.7c-0.8,0.5-1.5,1.3-2.2,2c-1.3,1.2-1.8,2.6-1.8,4.3
		c0,1,0,1.9,0,2.9c0,0.2,0,0.5,0.1,0.7c0.8,1.4,1.2,3.1,2.8,4.1C8,27.1,8.3,27.5,8.5,28.1z M20.9,42.4c0-0.7-0.5-5.1-0.8-6.3
		c-0.4-0.4-1-0.8-1.2-1.3c-0.3-0.6-0.8-0.7-1.2-1.1c-1.1-1.1-2.5-1.8-4.1-1.7c-0.3,0-0.5-0.1-0.8-0.1c-0.1,0-0.2,0.1-0.4,0.1
		c-0.3,0-0.7-0.1-0.9,0c-1.3,0.5-2.7,0.7-3.8,1.6c-0.7,0.6-1.5,1.1-1.8,2c-0.1,0.4-0.3,0.7-0.6,1.1c-0.2,0.3-0.4,0.7-0.4,1
		c0,1.1-0.4,2.1-0.3,3.3c0,0.3-0.1,0.6-0.1,1c0.1,0.9,0.7,1.5,0.9,2.4c0.1,0.5,0.5,1.1,1,1.5c0.4,0.3,0.8,0.6,1,1.2
		c0,0.1,0.2,0.3,0.3,0.3c0.4-0.1,0.6,0.3,0.9,0.5c1,0.7,2.1,1.1,3.4,1c0.5-0.1,1,0,1.4,0c1,0,1.9-0.3,2.7-0.6c0.4-0.2,1-0.3,1.3-0.6
		c0.4-0.5,0.9-0.9,1.4-1.3c0.6-0.5,1-1.1,1.3-1.8C20.4,43.8,20.6,43.2,20.9,42.4z M31.5,41.8c-0.5,0-1.1-0.1-1.7,0
		c-0.7,0.1-1.3,0.2-2,0.4c-1.3,0.3-2.4,1-3.5,1.8c-0.3,0.2-0.7,0.3-0.8,0.6c-0.4,1-1.4,1.7-1.5,2.9c0,0.2-0.4,0.3-0.5,0.4
		c0,0.6,0.1,1.2,0,1.5c-0.2,0.5,0,0.9-0.2,1.4c-0.1,0.4,0.3,0.8,0,1.3c0.3,0.4,0.3,1,0.5,1.4c0.7,1.6,1.6,3,3.3,3.7
		c1.1,0.5,2.2,1.1,3.6,1.3c1.1,0.1,2.7,0.3,3.5-0.1c0.4-0.2,0.8-0.3,1.1-0.5c1.1-0.5,2.2-1.3,3-2.2c0.1-0.2,0.2-0.4,0.3-0.6
		c0.1-0.2,0.1-0.5,0.3-0.7c0.9-1.1,1.2-2.3,1.2-3.7c0-0.4,0.1-0.8,0.2-1.2c-0.2-0.6-0.5-1.3-0.6-2c-0.2-0.9-0.6-1.7-1.2-2.4
		c-1.2-1.3-2.6-2.4-4.3-2.9C32,42.1,31.8,41.9,31.5,41.8z M55.2,20.7c0-0.6,0-1.1,0-1.5c0-0.1-0.2-0.2-0.2-0.4
		c-0.2-1.2-0.8-2.2-1.4-3.3c-0.3-0.6-0.7-1.2-1.4-1.4c-0.2-0.1-0.4-0.2-0.6-0.3c-1.2-1.2-2.7-1.3-4.3-1.5c-1.3-0.2-2.5,0.4-3.8,0.8
		c-0.8,0.3-1.6,0.8-2.3,1.4C41,14.6,41,15,40.6,15c-0.4,0.7-0.8,1.3-1.2,2c-0.4,0.7-0.6,1.6-0.9,2.4c-0.2,0.5,0,1.3,0,1.9
		c0,0.7,0.2,1.4,0.5,2.1c0.2,0.6,0.6,1.1,0.9,1.7c0.5,1,1.1,1.9,2.2,2.3c0.1,0.1,0.3,0.1,0.4,0.3c0.8,1.1,2,1.1,3.1,1.4
		c1.2,0.3,2.5-0.3,3.7-0.2c0.1,0,0.1-0.1,0.2-0.1c1.1-0.3,2-1,2.9-1.7c0.8-0.6,1.4-1.3,1.9-2.2C54.9,23.5,55.3,22.1,55.2,20.7z
		 M39.2,49.5c0.1-0.5,0.3-1,0-1.5c-0.1,0.3-0.1,0.6-0.1,0.9c0,0.3-0.2,0.6-0.2,0.9c0.1,0,0.1,0.1,0.2,0.1
		C39.1,49.8,39.1,49.7,39.2,49.5z M57.1,37.8c0.1,0,0.2,0,0.2,0c0-0.5,0.6-0.9,0.1-1.4C57.3,37,57.2,37.4,57.1,37.8z M3.6,21.1
		c0.2-0.5,0.3-1.1,0-1.6C3.6,20,3.6,20.5,3.6,21.1z M24.4,35.1c-0.1,0.5-0.3,0.9,0,1.4C24.4,36,24.4,35.5,24.4,35.1z M21.6,37.2
		c0.2-0.4,0.3-0.8,0-1.4C21.6,36.4,21.6,36.8,21.6,37.2z M3.9,30.4c0.2-0.4,0.3-0.8,0-1.1C3.9,29.7,3.9,30.1,3.9,30.4z M4.6,16.1
		c-0.1-0.3-0.1-0.5-0.1-0.8c-0.2,0.3-0.2,0.6-0.4,0.8C4.3,16.1,4.4,16.1,4.6,16.1z M21.6,41.8c-0.1,0-0.1,0-0.2,0
		c0,0.3,0,0.6,0.1,0.9c0,0,0.1,0,0.1,0C21.6,42.4,21.6,42.1,21.6,41.8z M37.5,24c0,0.4,0,0.5,0,0.7c0.1,0.1,0.2,0.2,0.3,0.3
		c0,0,0.1-0.1,0.1-0.1C37.8,24.6,37.7,24.4,37.5,24z M26.3,58c-0.4,0.1-0.6,0.1-0.9,0.1c0.2,0.2,0.3,0.3,0.4,0.4
		C25.9,58.4,26,58.3,26.3,58z M43.6,29.5c0-0.1,0-0.1,0-0.2c-0.2,0-0.4,0.1-0.6,0.1c0,0,0,0.1,0,0.1C43.2,29.5,43.4,29.5,43.6,29.5z
		 M6.3,49.4c0,0,0.1,0,0.1,0c0-0.2,0-0.5,0-0.7c0,0-0.1,0-0.1,0C6.3,49,6.3,49.2,6.3,49.4z M22.8,31.2c-0.1,0-0.1,0-0.2,0
		c0,0.2,0.1,0.4,0.1,0.6c0,0,0.1,0,0.1,0C22.8,31.7,22.8,31.5,22.8,31.2z M52.8,32c0,0.1,0,0.1,0,0.2c0.2,0,0.4-0.1,0.6-0.1
		c0,0,0-0.1,0-0.1C53.3,32,53.1,32,52.8,32z M53.3,33.1c-0.2,0-0.3,0.1-0.5,0.1c0.2,0.1,0.3,0.2,0.5,0.3
		C53.3,33.4,53.3,33.3,53.3,33.1z M11.7,51.8c0-0.1,0-0.1,0-0.2c-0.2,0-0.4,0.1-0.6,0.1c0,0,0,0.1,0,0.1
		C11.3,51.8,11.5,51.8,11.7,51.8z M31.9,1.4c0-0.1,0-0.1,0-0.2c-0.2,0-0.4,0.1-0.6,0.1c0,0,0,0.1,0,0.1C31.5,1.4,31.7,1.4,31.9,1.4z
		 M22.4,21.1c0.1,0,0.1,0,0.2,0c0-0.2-0.1-0.4-0.1-0.6c0,0-0.1,0-0.1,0C22.4,20.7,22.4,20.9,22.4,21.1z M36.7,24.9
		c0-0.1,0-0.1,0-0.2c-0.2,0-0.4,0.1-0.6,0.1c0,0,0,0.1,0,0.1C36.3,24.9,36.5,24.9,36.7,24.9z M37,58.3c0,0,0-0.1,0-0.1
		c-0.2,0-0.5,0-0.7,0c0,0,0,0.1,0,0.1C36.5,58.3,36.7,58.3,37,58.3z M27.2,59.6c0,0.1,0,0.1,0,0.2c0.2,0,0.4-0.1,0.6-0.1
		c0,0,0-0.1,0-0.1C27.6,59.6,27.4,59.6,27.2,59.6z M7.6,31.4c0,0-0.1,0-0.1,0c0,0.2,0,0.3,0,0.5c0,0,0.1,0,0.1,0
		C7.6,31.8,7.6,31.6,7.6,31.4z M20.7,14.2c0,0,0.1,0,0.1,0c0-0.2,0-0.3,0-0.5c0,0-0.1,0-0.1,0C20.7,13.8,20.7,14,20.7,14.2z
		 M16.8,12.4c0,0,0-0.1,0-0.1c-0.2,0-0.3,0-0.5,0c0,0,0,0.1,0,0.1C16.5,12.4,16.6,12.4,16.8,12.4z M19,12.4c0.1,0,0.1,0,0.2,0
		c0-0.1-0.1-0.3-0.1-0.4c0,0-0.1,0-0.1,0C19,12.2,19,12.3,19,12.4z M14.6,11.7c0-0.1,0-0.1,0-0.2c-0.1,0-0.3,0.1-0.4,0.1
		c0,0,0,0.1,0,0.1C14.3,11.7,14.5,11.7,14.6,11.7z M9.6,8.4c-0.1,0-0.1,0-0.2,0c0,0.1,0.1,0.3,0.1,0.4c0,0,0.1,0,0.1,0
		C9.6,8.7,9.6,8.6,9.6,8.4z M12.2,30.7c0,0,0-0.1,0-0.1c-0.2,0-0.3,0-0.5,0c0,0,0,0.1,0,0.1C11.9,30.7,12.1,30.7,12.2,30.7z
		 M44,29.6c0,0.1,0,0.1,0,0.2c0.1,0,0.3-0.1,0.4-0.1c0,0,0-0.1,0-0.1C44.2,29.6,44.1,29.6,44,29.6z M16.1,29.2c0,0,0-0.1,0-0.1
		c-0.2,0-0.3,0-0.5,0c0,0,0,0.1,0,0.1C15.8,29.2,15.9,29.2,16.1,29.2z M5.6,28.1c0,0,0.1,0,0.1,0c0-0.2,0-0.3,0-0.5c0,0-0.1,0-0.1,0
		C5.6,27.8,5.6,27.9,5.6,28.1z M4.8,26.8c0.1,0,0.1,0,0.2,0C5,26.7,5,26.6,5,26.4c0,0-0.1,0-0.1,0C4.8,26.6,4.8,26.7,4.8,26.8z
		 M2.8,35.6c-0.1,0-0.1,0-0.2,0c0,0.1,0.1,0.3,0.1,0.4c0,0,0.1,0,0.1,0C2.8,35.8,2.8,35.7,2.8,35.6z M4.8,26.1c0.1,0,0.1,0,0.2,0
		C5,26,5,25.8,5,25.7c0,0-0.1,0-0.1,0C4.8,25.9,4.8,26,4.8,26.1z M3.2,25.9c0.1,0,0.1,0,0.2,0c0-0.1-0.1-0.3-0.1-0.4
		c0,0-0.1,0-0.1,0C3.2,25.6,3.2,25.7,3.2,25.9z M20.5,36.2c0,0,0.1,0,0.1,0c0-0.2,0-0.3,0-0.5c0,0-0.1,0-0.1,0
		C20.5,35.9,20.5,36.1,20.5,36.2z M26.6,36.2c0-0.1,0-0.1,0-0.2c-0.1,0-0.3,0.1-0.4,0.1c0,0,0,0.1,0,0.1
		C26.3,36.2,26.5,36.2,26.6,36.2z M30.9,23.7c0-0.1,0-0.1,0-0.2c-0.1,0-0.3,0.1-0.4,0.1c0,0,0,0.1,0,0.1
		C30.7,23.7,30.8,23.7,30.9,23.7z M11.5,30.9c0-0.1,0-0.1,0-0.2c-0.1,0-0.3,0.1-0.4,0.1c0,0,0,0.1,0,0.1
		C11.2,30.9,11.3,30.9,11.5,30.9z M20.7,50.6c0.1,0,0.1,0,0.2,0c0-0.1-0.1-0.3-0.1-0.4c0,0-0.1,0-0.1,0
		C20.7,50.3,20.7,50.5,20.7,50.6z M0.8,37.9c0.1,0,0.1,0,0.2,0c0-0.1-0.1-0.3-0.1-0.4c0,0-0.1,0-0.1,0C0.8,37.6,0.8,37.7,0.8,37.9z
		 M8.4,51.1c0.1,0,0.1,0,0.2,0c0-0.1-0.1-0.3-0.1-0.4c0,0-0.1,0-0.1,0C8.4,50.8,8.4,51,8.4,51.1z M9.9,52c0.1,0,0.1,0,0.2,0
		c0-0.1-0.1-0.3-0.1-0.4c0,0-0.1,0-0.1,0C9.9,51.8,9.9,51.9,9.9,52z M32.2,19.7c0,0.1,0,0.1,0,0.2c0.1,0,0.3-0.1,0.4-0.1
		c0,0,0-0.1,0-0.1C32.5,19.7,32.3,19.7,32.2,19.7z M38.8,52.8c-0.1,0-0.1,0-0.2,0c0,0.1,0.1,0.3,0.1,0.4c0,0,0.1,0,0.1,0
		C38.8,53.1,38.8,53,38.8,52.8z M29,38.4c0-0.1,0-0.1,0-0.2c-0.1,0-0.3,0.1-0.4,0.1c0,0,0,0.1,0,0.1C28.7,38.4,28.9,38.4,29,38.4z
		 M20.6,56.4c-0.1,0-0.1,0-0.2,0c0,0.1,0.1,0.3,0.1,0.4c0,0,0.1,0,0.1,0C20.6,56.7,20.6,56.6,20.6,56.4z M23,39.8c0,0-0.1,0-0.1,0
		c0,0.2,0,0.3,0,0.5c0,0,0.1,0,0.1,0C23,40.2,23,40,23,39.8z M38.4,59.1c-0.1,0-0.1,0-0.2,0c0,0.1,0.1,0.3,0.1,0.4c0,0,0.1,0,0.1,0
		C38.4,59.3,38.4,59.2,38.4,59.1z M36.4,29.8c0,0-0.1,0-0.1,0c0,0.2,0,0.3,0,0.5c0,0,0.1,0,0.1,0C36.4,30.1,36.4,29.9,36.4,29.8z">

	</path>
</g>
</svg>
