<svg xmlns="http://www.w3.org/2000/svg" version="142" width="142" height="142"><path d="M25 0c0 13.807-11.193 25-25 25v21c13.807 0 25 11.193 25 25S13.807 96 0 96v21c13.807 0 25 11.193 25 25h21c0-13.807 11.193-25 25-25s25 11.193 25 25h21c0-13.807 11.193-25 25-25V96c-13.807 0-25-11.193-25-25s11.193-25 25-25V25c-13.807 0-25-11.193-25-25H96c0 13.807-11.193 25-25 25S46 13.807 46 0H25z" fill-rule="evenodd"/><path d="M35.849-12.466v171.863M107.02-11.94v170.283M-10.544 36.562h167.12M-11.598 105.097H155.52" fill="none" stroke="red" stroke-dasharray="2,1"/></svg>